<svg height="480pt" viewBox="0 0 480 480" width="480pt" xmlns="http://www.w3.org/2000/svg"><path d="m325.40625 295.726562-85.40625-23.726562h-96l-85.40625 23.726562c-34.632812 9.617188-58.59375 41.144532-58.59375 77.082032v107.191406h384v-107.191406c0-35.9375-23.960938-67.464844-58.59375-77.082032zm0 0" fill="#98ca69"/><path d="m64 432h16v48h-16zm0 0" fill="#75aa40"/><path d="m304 432h16v48h-16zm0 0" fill="#75aa40"/><path d="m192 336c33.808594 0 61.511719-26.375 63.777344-59.617188l-15.777344-4.382812h-96l-15.777344 4.382812c2.265625 33.242188 29.96875 59.617188 63.777344 59.617188zm0 0" fill="#75aa40"/><path d="m240 216v56c0 26.511719-21.488281 48-48 48s-48-21.488281-48-48v-56zm0 0" fill="#fcb98b"/><path d="m280 104v48c0 48.601562-39.398438 88-88 88s-88-39.398438-88-88v-48c0-17.671875 14.328125-32 32-32h112c17.671875 0 32 14.328125 32 32zm0 0" fill="#ffd3b3"/><path d="m280 152-13.214844-59.472656c-1.625-7.320313-8.121094-12.527344-15.617187-12.527344h-11.167969v-56h8c17.671875 0 32 14.328125 32 32zm0 0" fill="#6e83b7"/><path d="m120 104-16 48v-72c0-44.183594 35.816406-80 80-80h32c17.671875 0 32 14.328125 32 32v40c0 17.671875-14.328125 32-32 32zm0 0" fill="#6e83b7"/><path d="m280 104h5.113281c9.886719 0 17.40625 8.878906 15.78125 18.632812l-2.664062 16c-1.285157 7.710938-7.964844 13.367188-15.78125 13.367188h-2.449219zm0 0" fill="#ffd3b3"/><path d="m104 104h-5.113281c-9.886719 0-17.40625 8.878906-15.78125 18.632812l2.664062 16c1.285157 7.710938 7.964844 13.367188 15.78125 13.367188h2.449219zm0 0" fill="#ffd3b3"/><path d="m320 480-16-32-15.480469-162.519531-32.742187-9.097657 7.160156 114.617188c.574219 9.214844-6.738281 17-15.96875 17h-109.9375c-9.230469 0-16.542969-7.785156-15.96875-17l7.160156-114.617188-32.742187 9.097657-15.480469 162.519531-16 32zm0 0" fill="#6e83b7"/><path d="m392 273.351562v-17.351562h16v-16h-64v16h16v17.351562c-49.824219 7.71875-88 50.664063-88 102.648438 0 57.441406 46.558594 104 104 104s104-46.558594 104-104c0-51.984375-38.175781-94.929688-88-102.648438zm0 0" fill="#80d6fb"/><path d="m360 256h32v8h-32zm0 0" fill="#46bee8"/><path d="m464 376c0 48.601562-39.398438 88-88 88s-88-39.398438-88-88 39.398438-88 88-88 88 39.398438 88 88zm0 0" fill="#edeff1"/><g fill="#6e83b7"><path d="m392 376c0 8.835938-7.164062 16-16 16s-16-7.164062-16-16 7.164062-16 16-16 16 7.164062 16 16zm0 0"/><path d="m368 320h16v56h-16zm0 0"/><path d="m381.660156 370.339844 32 32-11.3125 11.3125-32-32zm0 0"/><path d="m368 296h16v16h-16zm0 0"/><path d="m426.910156 313.765625 11.316406 11.316406-11.316406 11.3125-11.3125-11.3125zm0 0"/><path d="m440 368h16v16h-16zm0 0"/><path d="m426.933594 415.589844 11.3125 11.316406-11.316406 11.3125-11.3125-11.316406zm0 0"/><path d="m368 440h16v16h-16zm0 0"/><path d="m325.089844 415.59375 11.3125 11.3125-11.3125 11.316406-11.316406-11.316406zm0 0"/><path d="m296 368h16v16h-16zm0 0"/><path d="m325.105469 313.769531 11.308593 11.316407-11.3125 11.3125-11.3125-11.316407zm0 0"/></g></svg>