<?xml version="1.0" encoding="utf-8"?>
<!-- Svg Vector Icons : http://www.onlinewebfonts.com/icon -->
<!DOCTYPE svg PUBLIC "-//W3C//DTD SVG 1.1//EN" "http://www.w3.org/Graphics/SVG/1.1/DTD/svg11.dtd">
<svg version="1.1" xmlns="http://www.w3.org/2000/svg" xmlns:xlink="http://www.w3.org/1999/xlink" x="0px" y="0px" viewBox="0 0 1000 1000" enable-background="new 0 0 1000 1000" xml:space="preserve">
<metadata> Svg Vector Icons : http://www.onlinewebfonts.com/icon </metadata>
<g><g><g><path d="M973.5,686.1c-11-11-24.3-16.5-40-16.5H682c-8.2,22-22.1,40-41.5,54.2C621,737.9,599.3,745,575.4,745H424.6c-23.9,0-45.6-7.1-65.1-21.2c-19.4-14.1-33.3-32.2-41.5-54.2H66.5c-15.7,0-29.1,5.5-40,16.5c-11,11-16.5,24.3-16.5,40v188.5c0,15.7,5.5,29.1,16.5,40c11,11,24.3,16.5,40,16.5h866.9c15.7,0,29.1-5.5,40-16.5c11-11,16.5-24.3,16.5-40V726.2C990,710.5,984.5,697.1,973.5,686.1z M752.7,884.6c-7.5,7.5-16.3,11.2-26.5,11.2s-19-3.7-26.5-11.2c-7.5-7.5-11.2-16.3-11.2-26.5c0-10.2,3.7-19.1,11.2-26.5c7.5-7.5,16.3-11.2,26.5-11.2s19,3.7,26.5,11.2c7.5,7.4,11.2,16.3,11.2,26.5C763.8,868.3,760.1,877.1,752.7,884.6z M903.4,884.6c-7.5,7.5-16.3,11.2-26.5,11.2c-10.2,0-19-3.7-26.5-11.2c-7.5-7.5-11.2-16.3-11.2-26.5c0-10.2,3.7-19.1,11.2-26.5c7.5-7.5,16.3-11.2,26.5-11.2c10.2,0,19,3.7,26.5,11.2c7.5,7.4,11.2,16.3,11.2,26.5C914.6,868.3,910.9,877.1,903.4,884.6z"/><path d="M236.2,368.1h150.8v263.9c0,10.2,3.7,19,11.2,26.5c7.5,7.5,16.3,11.2,26.5,11.2h150.8c10.2,0,19-3.7,26.5-11.2c7.5-7.5,11.2-16.3,11.2-26.5V368.1h150.8c16.5,0,28.1-7.9,34.7-23.6c6.7-15.3,3.9-28.9-8.2-40.6L526.5,40c-7.1-7.5-15.9-11.2-26.5-11.2c-10.6,0-19.4,3.7-26.5,11.2L209.7,303.9c-12.2,11.8-14.9,25.3-8.2,40.6C208.1,360.2,219.7,368.1,236.2,368.1z"/></g></g><g></g><g></g><g></g><g></g><g></g><g></g><g></g><g></g><g></g><g></g><g></g><g></g><g></g><g></g><g></g></g>
</svg>